<?xml version="1.0" encoding="utf-8"?>
<!-- Generator: Adobe Illustrator 26.2.1, SVG Export Plug-In . SVG Version: 6.00 Build 0)  -->
<svg version="1.1" id="Camada_1" xmlns="http://www.w3.org/2000/svg" xmlns:xlink="http://www.w3.org/1999/xlink" x="0px" y="0px"
	 viewBox="0 0 150 150" style="enable-background:new 0 0 150 150;" xml:space="preserve">
<style type="text/css">
	.st0{fill:#5493F7;}
	.st1{fill:#FFFFFF;}
	.st2{fill:none;stroke:#FFFFFF;stroke-width:13;stroke-linecap:round;stroke-linejoin:round;stroke-miterlimit:133.3333;}
</style>
<path class="st0" d="M122.86,150H27.14C12.15,150,0,137.85,0,122.86V27.14C0,12.15,12.15,0,27.14,0h95.72
	C137.85,0,150,12.15,150,27.14v95.72C150,137.85,137.85,150,122.86,150z"/>
<path id="secondary" class="st1" d="M17.16,58.24l29.99,29.99h17.1v-17.1L34.26,41.14c-2.37-2.33-6.18-2.33-8.55,0l-8.55,8.55
	C14.84,52.07,14.84,55.87,17.16,58.24z"/>
<path id="primary" class="st2" d="M52.03,21.05h61.07c3.37,0,6.11,2.73,6.11,6.11v97.71c0,3.37-2.73,6.11-6.11,6.11H39.82
	c-3.37,0-6.11-2.73-6.11-6.11v-12.21"/>
<path id="primary-2" class="st2" d="M113.11,51.58h12.21 M113.11,76.01h12.21 M113.11,100.44h12.21"/>
</svg>
