<?xml version="1.0" encoding="utf-8"?>
<!-- Generator: Adobe Illustrator 26.2.1, SVG Export Plug-In . SVG Version: 6.00 Build 0)  -->
<svg version="1.1" id="Camada_1" xmlns="http://www.w3.org/2000/svg" xmlns:xlink="http://www.w3.org/1999/xlink" x="0px" y="0px"
	 viewBox="0 0 150 150" style="enable-background:new 0 0 150 150;" xml:space="preserve">
<style type="text/css">
	.st0{fill:#5493F7;}
	.st1{fill-rule:evenodd;clip-rule:evenodd;fill:#FFFFFF;}
</style>
<path class="st0" d="M122.86,150H27.14C12.15,150,0,137.85,0,122.86V27.14C0,12.15,12.15,0,27.14,0h95.72
	C137.85,0,150,12.15,150,27.14v95.72C150,137.85,137.85,150,122.86,150z"/>
<path class="st1" d="M138.39,39.89v78.54l-30.65-38.3l-5.82,4.66l30.95,38.69H17.14l30.95-38.69l-5.82-4.66l-30.65,38.3V39.89
	L75,94.85L138.39,39.89z M138.38,26.53v3.47L75,84.97L11.62,30.01v-3.47H138.38z"/>
</svg>
