<?xml version="1.0" encoding="utf-8"?>
<!-- Generator: Adobe Illustrator 26.2.1, SVG Export Plug-In . SVG Version: 6.00 Build 0)  -->
<svg version="1.1" id="Camada_1" xmlns="http://www.w3.org/2000/svg" xmlns:xlink="http://www.w3.org/1999/xlink" x="0px" y="0px"
	 viewBox="0 0 150 150" style="enable-background:new 0 0 150 150;" xml:space="preserve">
<style type="text/css">
	.st0{fill:#5493F7;}
	.st1{fill:#FFFFFF;}
</style>
<path class="st0" d="M122.9,150H27.1C12.1,150,0,137.9,0,122.9V27.1C0,12.1,12.1,0,27.1,0h95.7c15,0,27.1,12.1,27.1,27.1v95.7
	C150,137.9,137.9,150,122.9,150z"/>
<g>
	<path class="st1" d="M20.9,15.1h108.3c3.7,0,6.7,3,6.7,6.7v108.3c0,3.7-3,6.7-6.7,6.7h-31V89.7H114l2.4-18.3H98.1V59.7
		c0-5.3,1.5-9,9.1-9h9.7V34.2c-1.7-0.2-7.5-0.7-14.2-0.7c-14.1,0-23.7,8.5-23.7,24.3v13.5H63.3v18.3h15.9v47.2H20.9
		c-3.7,0-6.8-3-6.8-6.7V21.8C14.1,18.1,17.2,15.1,20.9,15.1z"/>
</g>
</svg>
