<?xml version="1.0" encoding="utf-8"?>
<!-- Generator: Adobe Illustrator 26.2.1, SVG Export Plug-In . SVG Version: 6.00 Build 0)  -->
<svg version="1.1" id="Camada_1" xmlns="http://www.w3.org/2000/svg" xmlns:xlink="http://www.w3.org/1999/xlink" x="0px" y="0px"
	 viewBox="0 0 150 150" style="enable-background:new 0 0 150 150;" xml:space="preserve">
<style type="text/css">
	.st0{fill:#5493F7;}
	.st1{fill-rule:evenodd;clip-rule:evenodd;fill:#FFFFFF;}
</style>
<path class="st0" d="M122.9,150H27.1C12.1,150,0,137.9,0,122.9V27.1C0,12.1,12.1,0,27.1,0h95.7c15,0,27.1,12.1,27.1,27.1v95.7
	C150,137.9,137.9,150,122.9,150z"/>
<g id="Page-1">
	<g id="Dribbble-Light-Preview" transform="translate(-140.000000, -7559.000000)">
		<g id="icons" transform="translate(56.000000, 160.000000)">
			<path id="github-_x5B__x23_142_x5D_" class="st1" d="M159,7414.7c33.2,0,60.2,27.6,60.2,61.7c0,27.3-17.2,50.4-41.1,58.6
				c-3.1,0.6-4.1-1.3-4.1-3c0-2,0.1-8.7,0.1-16.9c0-5.8-1.9-9.5-4.1-11.4c13.4-1.5,27.5-6.7,27.5-30.5c0-6.7-2.3-12.2-6.2-16.6
				c0.6-1.6,2.7-7.8-0.6-16.3c0,0-5-1.7-16.5,6.3c-4.8-1.4-10-2.1-15.1-2.1c-5.1,0-10.3,0.7-15.1,2.1c-11.5-8-16.6-6.3-16.6-6.3
				c-3.3,8.5-1.2,14.8-0.6,16.3c-3.8,4.3-6.2,9.8-6.2,16.6c0,23.6,14.1,28.9,27.4,30.5c-1.7,1.5-3.3,4.3-3.8,8.2
				c-3.4,1.6-12.1,4.3-17.5-5.1c0,0-3.2-5.9-9.2-6.4c0,0-5.9-0.1-0.4,3.8c0,0,3.9,1.9,6.7,9c0,0,3.5,11,20.3,7.3
				c0,5.2,0.1,10,0.1,11.5c0,1.6-1.1,3.5-4.1,3c-23.9-8.2-41.2-31.3-41.2-58.6C98.8,7442.3,125.8,7414.7,159,7414.7"/>
		</g>
	</g>
</g>
</svg>
