<?xml version="1.0" encoding="utf-8"?>
<!-- Generator: Adobe Illustrator 26.2.1, SVG Export Plug-In . SVG Version: 6.00 Build 0)  -->
<svg version="1.1" id="Camada_1" xmlns="http://www.w3.org/2000/svg" xmlns:xlink="http://www.w3.org/1999/xlink" x="0px" y="0px"
	 viewBox="0 0 150 150" style="enable-background:new 0 0 150 150;" xml:space="preserve">
<style type="text/css">
	.st0{fill:#5493F7;}
	.st1{fill-rule:evenodd;clip-rule:evenodd;fill:#FFFFFF;}
	.st2{fill:#FFFFFF;}
</style>
<path class="st0" d="M122.86,150H27.14C12.15,150,0,137.85,0,122.86V27.14C0,12.15,12.15,0,27.14,0h95.72
	C137.85,0,150,12.15,150,27.14v95.72C150,137.85,137.85,150,122.86,150z"/>
<path class="st1" d="M75,108.71c18.13,0,32.83-14.7,32.83-32.83c0-18.13-14.7-32.83-32.83-32.83c-18.13,0-32.83,14.7-32.83,32.83
	C42.17,94.01,56.87,108.71,75,108.71z M75,97.77c12.09,0,21.89-9.8,21.89-21.89c0-12.09-9.8-21.89-21.89-21.89
	c-12.09,0-21.89,9.8-21.89,21.89C53.11,87.97,62.91,97.77,75,97.77z"/>
<path class="st2" d="M107.83,37.58c-3.02,0-5.47,2.45-5.47,5.47s2.45,5.47,5.47,5.47c3.02,0,5.47-2.45,5.47-5.47
	S110.85,37.58,107.83,37.58z"/>
<path class="st1" d="M18.39,33.62c-3.58,7.02-3.58,16.22-3.58,34.6v15.32c0,18.39,0,27.58,3.58,34.6
	c3.15,6.18,8.17,11.2,14.35,14.35c7.02,3.58,16.22,3.58,34.6,3.58h15.32c18.39,0,27.58,0,34.6-3.58c6.18-3.15,11.2-8.17,14.35-14.35
	c3.58-7.02,3.58-16.22,3.58-34.6V68.22c0-18.39,0-27.58-3.58-34.6c-3.15-6.18-8.17-11.2-14.35-14.35
	c-7.02-3.58-16.22-3.58-34.6-3.58H67.34c-18.39,0-27.58,0-34.6,3.58C26.56,22.42,21.54,27.44,18.39,33.62z M82.66,26.63H67.34
	c-9.37,0-15.75,0.01-20.67,0.41c-4.8,0.39-7.25,1.1-8.96,1.97c-4.12,2.1-7.47,5.45-9.57,9.57c-0.87,1.71-1.58,4.17-1.97,8.96
	c-0.4,4.93-0.41,11.3-0.41,20.67v15.32c0,9.37,0.01,15.75,0.41,20.67c0.39,4.8,1.1,7.25,1.97,8.96c2.1,4.12,5.45,7.47,9.57,9.56
	c1.71,0.87,4.17,1.58,8.96,1.97c4.93,0.4,11.3,0.41,20.67,0.41h15.32c9.37,0,15.75-0.01,20.67-0.41c4.8-0.39,7.25-1.1,8.96-1.97
	c4.12-2.1,7.47-5.45,9.56-9.56c0.87-1.71,1.58-4.17,1.97-8.96c0.4-4.93,0.41-11.3,0.41-20.67V68.22c0-9.37-0.01-15.75-0.41-20.67
	c-0.39-4.8-1.1-7.25-1.97-8.96c-2.1-4.12-5.45-7.47-9.56-9.57c-1.71-0.87-4.17-1.58-8.96-1.97C98.41,26.64,92.03,26.63,82.66,26.63z
	"/>
</svg>
