<?xml version="1.0" encoding="utf-8"?>
<!-- Generator: Adobe Illustrator 26.2.1, SVG Export Plug-In . SVG Version: 6.00 Build 0)  -->
<svg version="1.1" id="Camada_1" xmlns="http://www.w3.org/2000/svg" xmlns:xlink="http://www.w3.org/1999/xlink" x="0px" y="0px"
	 viewBox="0 0 150 150" style="enable-background:new 0 0 150 150;" xml:space="preserve">
<style type="text/css">
	.st0{fill:#5493F7;}
	.st1{fill:#FFFFFF;}
</style>
<path class="st0" d="M122.86,150H27.14C12.15,150,0,137.85,0,122.86V27.14C0,12.15,12.15,0,27.14,0h95.72
	C137.85,0,150,12.15,150,27.14v95.72C150,137.85,137.85,150,122.86,150z"/>
<path class="st1" d="M123.91,15.69h-98.6c-6.01,0-10.89,4.88-10.89,10.89v98.6c0,6.01,4.88,10.89,10.89,10.89h98.6
	c6.01,0,10.89-4.88,10.89-10.89v-98.6C134.8,20.56,129.93,15.69,123.91,15.69z M51.68,119.63c0,1.75-1.42,3.17-3.17,3.17H35.02
	c-1.75,0-3.17-1.42-3.17-3.17V63.08c0-1.75,1.42-3.17,3.17-3.17h13.49c1.75,0,3.17,1.42,3.17,3.17V119.63z M41.76,54.58
	c-7.08,0-12.81-5.74-12.81-12.81s5.74-12.81,12.81-12.81s12.81,5.74,12.81,12.81S48.84,54.58,41.76,54.58z M122.17,119.88
	c0,1.61-1.3,2.91-2.91,2.91h-14.47c-1.61,0-2.91-1.3-2.91-2.91V93.36c0-3.96,1.16-17.34-10.34-17.34c-8.92,0-10.73,9.16-11.09,13.27
	v30.59c0,1.61-1.3,2.91-2.91,2.91h-14c-1.61,0-2.91-1.3-2.91-2.91V62.83c0-1.61,1.3-2.91,2.91-2.91h14c1.61,0,2.91,1.3,2.91,2.91
	v4.93c3.31-4.96,8.22-8.8,18.69-8.8c23.18,0,23.04,21.65,23.04,33.55L122.17,119.88L122.17,119.88z"/>
</svg>
