<svg id="Camada_1" data-name="Camada 1" xmlns="http://www.w3.org/2000/svg" viewBox="0 0 150 150"><defs><style>.cls-1{fill:#5493f7;}.cls-2{fill:#fff;fill-rule:evenodd;}</style></defs><rect class="cls-1" width="150" height="150" rx="27.14"/><path class="cls-2" d="M28.57,75a47.82,47.82,0,1,1,22.28,40.44,5.65,5.65,0,0,0-4.62-.64L30,119.64l6.1-14.28a5.63,5.63,0,0,0-.39-5.18A47.55,47.55,0,0,1,28.57,75ZM76.41,15.91a59.11,59.11,0,0,0-51.75,87.64L15,126.25a5.62,5.62,0,0,0,6.78,7.6l25.32-7.55A59.1,59.1,0,1,0,76.41,15.91Zm12.9,71.37-7.4,5.21a52.55,52.55,0,0,1-11.13-8.57A56.81,56.81,0,0,1,61.64,72l4.7-4a5.64,5.64,0,0,0,1.33-6.94l-6-11.25A5.63,5.63,0,0,0,53,48.25L51.23,49.8a15,15,0,0,0-4.7,16,67.79,67.79,0,0,0,16.29,26C73,102.09,83.39,106.11,89.45,107.67a14.52,14.52,0,0,0,12.77-3.09l3.33-2.71a5.61,5.61,0,0,0-.68-9.19l-9.44-5.63A5.62,5.62,0,0,0,89.31,87.28Z"/></svg>