<svg xmlns="http://www.w3.org/2000/svg" viewBox="0 0 929.71 1081.23"><defs><style>.cls-1{fill:#fff;}</style></defs><g id="ICO"><path class="cls-1" d="M520,420.69l-25.72,59.47,32.9,76.56H294.88L406,291.49a90.7,90.7,0,1,0-42.82-19.81l-121.83,285h-1.55v3.62l-18.59,43.49H575v-.11h23.65ZM421.52,150.91a51.15,51.15,0,1,1-51.15,51.15A51.15,51.15,0,0,1,421.52,150.91Z"/><path class="cls-1" d="M591.61,180.86l-51.23.11L821.61,835.34H695.18L642.26,708.82H347.49L293.73,835.34H220.67a90.81,90.81,0,1,0-.4,47.11H327.64l53-126.52H612.08l49,126.53H841.85l51.33.12ZM132.81,909.25A51.15,51.15,0,1,1,184,858.11,51.15,51.15,0,0,1,132.81,909.25Z"/></g></svg>